Coordinates
version=1
nRows=37
nColumns=38
inDegrees=no

Units are S.I. units (second, meters, Newtons, ...)
If the header above contains a line with 'inDegrees', this indicates whether rotational values are in degrees (yes) or radians (no).

endheader
time	pelvis_tilt	pelvis_list	pelvis_rotation	pelvis_tx	pelvis_ty	pelvis_tz	hip_flexion_r	hip_adduction_r	hip_rotation_r	knee_angle_r	ankle_angle_r	subtalar_angle_r	mtp_angle_r	hip_flexion_l	hip_adduction_l	hip_rotation_l	knee_angle_l	ankle_angle_l	subtalar_angle_l	mtp_angle_l	lumbar_extension	lumbar_bending	lumbar_rotation	arm_flex_r	arm_add_r	arm_rot_r	elbow_flex_r	pro_sup_r	wrist_flex_r	wrist_dev_r	arm_flex_l	arm_add_l	arm_rot_l	elbow_flex_l	pro_sup_l	wrist_flex_l	wrist_dev_l
0.68	-2.42064	1.41471	-2.2133	0.599347	0.111116	0.92552	0.0931925	-0.268004	-0.120479	1.26057	-0.188242	0	0	0.166375	0.0958961	-0.311567	0.410321	0.199456	0	0	-0.223937	-0.172261	-0.135252	-0.23295	-0.161772	0.175981	0.513719	0.355882	0	0	-0.200326	-0.383095	0.150378	0.699338	1.36609	0	0
0.69	-2.46211	1.41302	-2.16775	0.597234	0.120791	0.927968	0.114606	-0.262107	-0.109253	1.28136	-0.14613	0	0	0.143223	0.0945183	-0.306607	0.399472	0.201443	0	0	-0.230531	-0.166278	-0.14114	-0.230595	-0.163613	0.17636	0.513027	0.357505	0	0	-0.190772	-0.386401	0.152155	0.698598	1.3684	0	0
0.7	-2.50172	1.41233	-2.12308	0.595038	0.130318	0.930344	0.135375	-0.255051	-0.100183	1.29436	-0.111519	0	0	0.120728	0.0928195	-0.300815	0.38708	0.202748	0	0	-0.235738	-0.159388	-0.148008	-0.228387	-0.165188	0.17626	0.511477	0.359579	0	0	-0.181148	-0.389501	0.153888	0.698083	1.36851	0	0
0.71	-2.5408	1.41228	-2.07803	0.592834	0.139804	0.932647	0.155176	-0.247198	-0.0931018	1.30055	-0.0792071	0	0	0.098277	0.0907272	-0.294332	0.372906	0.203798	0	0	-0.239782	-0.15191	-0.155736	-0.226627	-0.166213	0.175519	0.509245	0.363446	0	0	-0.171688	-0.392757	0.155945	0.69766	1.36762	0	0
0.72	-2.57787	1.41318	-2.0343	0.590679	0.149248	0.93477	0.175265	-0.238951	-0.087775	1.30192	-0.0495522	0	0	0.0774265	0.0877781	-0.288458	0.359314	0.205632	0	0	-0.242383	-0.144105	-0.163948	-0.225554	-0.166619	0.17378	0.507011	0.369188	0	0	-0.162518	-0.396499	0.160196	0.696273	1.36673	0	0
0.73	-2.61368	1.41446	-1.99145	0.58855	0.1586	0.936751	0.195732	-0.231166	-0.0844774	1.30002	-0.0257177	0	0	0.0574526	0.0846192	-0.281757	0.345613	0.207649	0	0	-0.244316	-0.136122	-0.172229	-0.22499	-0.166316	0.169512	0.504574	0.381192	0	0	-0.153168	-0.400634	0.16593	0.695844	1.36057	0	0
0.74	-2.66123	1.41445	-1.93887	0.585389	0.167646	0.938697	0.214889	-0.232614	-0.0806026	1.2928	0.000449159	0	0	0.0347909	0.0884812	-0.261059	0.326038	0.200906	0	0	-0.248054	-0.125212	-0.180047	-0.224306	-0.170626	0.179124	0.507112	0.367341	0	0	-0.144306	-0.40107	0.161716	0.695071	1.38292	0	0
0.75	-2.69436	1.41574	-1.8984	0.583354	0.176733	0.940419	0.234031	-0.22662	-0.0822343	1.28211	0.0188527	0	0	0.0147658	0.0859677	-0.25028	0.309273	0.200897	0	0	-0.249544	-0.117317	-0.188696	-0.224417	-0.170465	0.177139	0.507832	0.37497	0	0	-0.135107	-0.404694	0.163484	0.696418	1.38102	0	0
0.76	-2.72592	1.41693	-1.85945	0.581391	0.185722	0.942009	0.252088	-0.221536	-0.0854577	1.26672	0.0366545	0	0	-0.0055622	0.0837207	-0.23791	0.290994	0.200281	0	0	-0.250859	-0.109712	-0.197207	-0.224855	-0.169914	0.174254	0.509457	0.384217	0	0	-0.126071	-0.408653	0.165293	0.699256	1.37839	0	0
0.77	-2.75478	1.4179	-1.82294	0.579437	0.19464	0.943448	0.268277	-0.217598	-0.0907446	1.24613	0.0558184	0	0	-0.0262085	0.0818698	-0.224213	0.271506	0.199007	0	0	-0.25211	-0.102548	-0.20593	-0.225529	-0.169152	0.170742	0.511685	0.395091	0	0	-0.117341	-0.412786	0.16643	0.703696	1.37521	0	0
0.78	-2.77824	1.41836	-1.79142	0.577513	0.203636	0.944699	0.282231	-0.217953	-0.102495	1.22146	0.0748228	0	0	-0.0474534	0.0806851	-0.209839	0.251435	0.197438	0	0	-0.253207	-0.0964246	-0.215014	-0.226877	-0.168114	0.166398	0.514987	0.406638	0	0	-0.10937	-0.417178	0.166638	0.709567	1.37208	0	0
0.79	-2.80259	1.41855	-1.75967	0.575726	0.212565	0.9458	0.293899	-0.216304	-0.112239	1.19141	0.0913235	0	0	-0.0688628	0.0789938	-0.195942	0.23128	0.196027	0	0	-0.254529	-0.0903207	-0.223443	-0.228097	-0.166948	0.160325	0.520071	0.416935	0	0	-0.101693	-0.421527	0.166526	0.716013	1.36928	0	0
0.8	-2.82557	1.4187	-1.73027	0.574113	0.221478	0.946669	0.304083	-0.213779	-0.120674	1.15665	0.103886	0	0	-0.0896538	0.0768846	-0.183242	0.212136	0.195442	0	0	-0.2557	-0.0847862	-0.231014	-0.228895	-0.165737	0.153941	0.526043	0.42629	0	0	-0.0944938	-0.42606	0.165724	0.724197	1.36552	0	0
0.81	-2.84431	1.41931	-1.70616	0.572666	0.230347	0.94723	0.314119	-0.211744	-0.128575	1.11888	0.112081	0	0	-0.10836	0.0746233	-0.173021	0.195981	0.196345	0	0	-0.256243	-0.0802144	-0.237836	-0.228942	-0.164549	0.148149	0.532206	0.434774	0	0	-0.087785	-0.430886	0.164355	0.733749	1.36084	0	0
0.82	-2.83685	1.42104	-1.70476	0.57223	0.239259	0.947477	0.325054	-0.203654	-0.136394	1.08127	0.109449	0	0	-0.124527	0.0684717	-0.17486	0.181712	0.203627	0	0	-0.255415	-0.0809905	-0.246957	-0.229155	-0.161267	0.143444	0.537752	0.442566	0	0	-0.0804785	-0.43788	0.163575	0.743163	1.35527	0	0
0.83	-2.85776	1.41914	-1.68417	0.569892	0.247981	0.947748	0.331957	-0.213618	-0.14683	1.03984	0.11928	0	0	-0.150878	0.0750977	-0.143252	0.153368	0.190071	0	0	-0.258418	-0.075653	-0.250478	-0.227046	-0.16349	0.141748	0.547233	0.446056	0	0	-0.0749746	-0.440421	0.158222	0.75318	1.36551	0	0
0.84	-2.86048	1.41925	-1.67791	0.568683	0.256846	0.947651	0.338979	-0.215042	-0.157614	0.996398	0.123386	0	0	-0.170586	0.0752018	-0.130497	0.134907	0.188814	0	0	-0.259055	-0.0744947	-0.256008	-0.225167	-0.16312	0.139532	0.55487	0.451752	0	0	-0.0683697	-0.445799	0.156879	0.763416	1.36152	0	0
0.85	-2.85909	1.41908	-1.67698	0.567612	0.265631	0.947392	0.34467	-0.216733	-0.168916	0.950985	0.12745	0	0	-0.190571	0.0759645	-0.118394	0.116577	0.187617	0	0	-0.260108	-0.074226	-0.260413	-0.222312	-0.163009	0.13785	0.561953	0.455451	0	0	-0.0613491	-0.451098	0.155746	0.773682	1.35711	0	0
0.86	-2.85531	1.41885	-1.67924	0.566696	0.274469	0.94694	0.349482	-0.218493	-0.18108	0.904212	0.130444	0	0	-0.210434	0.0770581	-0.107071	0.0986216	0.186519	0	0	-0.261458	-0.0744901	-0.263831	-0.218739	-0.163147	0.13674	0.568818	0.457788	0	0	-0.0537666	-0.456379	0.155341	0.783389	1.35296	0	0
0.87	-2.84978	1.41868	-1.68369	0.565833	0.283267	0.946317	0.353198	-0.219895	-0.194613	0.855952	0.133175	0	0	-0.229735	0.0781669	-0.0967231	0.0816609	0.186017	0	0	-0.262583	-0.0752144	-0.266509	-0.214668	-0.16359	0.137026	0.575374	0.459986	0	0	-0.0452979	-0.461686	0.156463	0.791769	1.34906	0	0
0.88	-2.84334	1.41836	-1.68968	0.564985	0.292123	0.9455	0.356049	-0.220348	-0.208227	0.806816	0.136171	0	0	-0.24817	0.0790483	-0.0883989	0.0668388	0.186872	0	0	-0.264206	-0.0763181	-0.26817	-0.210201	-0.164206	0.138411	0.581947	0.462771	0	0	-0.0362318	-0.467129	0.158324	0.800112	1.34491	0	0
0.89	-2.83547	1.41852	-1.69782	0.564521	0.300955	0.944489	0.358836	-0.219749	-0.221426	0.75621	0.140255	0	0	-0.264706	0.0798923	-0.0824969	0.0547991	0.18929	0	0	-0.265545	-0.0778595	-0.26868	-0.205357	-0.164939	0.140696	0.588187	0.466187	0	0	-0.0263475	-0.472536	0.161439	0.807778	1.3402	0	0
0.9	-2.82423	1.41969	-1.71005	0.564392	0.30974	0.943241	0.362131	-0.218206	-0.234672	0.704008	0.145975	0	0	-0.278211	0.0810205	-0.0796305	0.0464368	0.193468	0	0	-0.265911	-0.0800207	-0.268	-0.200148	-0.165664	0.143407	0.59337	0.470094	0	0	-0.0156085	-0.477684	0.165606	0.814306	1.33509	0	0
0.91	-2.79095	1.42209	-1.73953	0.564841	0.318535	0.941703	0.366579	-0.210579	-0.24185	0.650273	0.147892	0	0	-0.288802	0.0790148	-0.0865918	0.0393382	0.202469	0	0	-0.264864	-0.0861052	-0.269448	-0.196275	-0.164358	0.145517	0.597304	0.474693	0	0	-0.00300635	-0.48371	0.170736	0.820034	1.32984	0	0
0.92	-2.77581	1.42434	-1.75731	0.564806	0.327316	0.94009	0.369295	-0.207593	-0.253558	0.594941	0.156251	0	0	-0.29956	0.0807199	-0.0846115	0.0330939	0.206035	0	0	-0.264274	-0.0886807	-0.266735	-0.191021	-0.167929	0.159926	0.605411	0.448981	0	0	0.00836371	-0.486914	0.171728	0.824585	1.3424	0	0
0.93	-2.75649	1.42821	-1.77962	0.564935	0.336041	0.938244	0.373286	-0.203535	-0.263139	0.539351	0.164109	0	0	-0.305382	0.0823035	-0.0866379	0.0327421	0.212208	0	0	-0.262228	-0.0915496	-0.262933	-0.185254	-0.167983	0.160411	0.609061	0.455973	0	0	0.0207575	-0.490252	0.176454	0.828297	1.34126	0	0
0.94	-2.73928	1.43242	-1.80024	0.565185	0.344796	0.936318	0.376123	-0.19757	-0.272378	0.48221	0.171255	0	0	-0.309719	0.0832837	-0.0891401	0.0345784	0.219206	0	0	-0.259938	-0.0938235	-0.258474	-0.179826	-0.169014	0.164732	0.614056	0.454139	0	0	0.0334349	-0.492942	0.181645	0.830785	1.34101	0	0
0.95	-2.72362	1.43735	-1.81969	0.565564	0.353597	0.934313	0.378702	-0.189836	-0.280667	0.425145	0.176539	0	0	-0.312083	0.0835774	-0.0930032	0.0391069	0.227214	0	0	-0.256894	-0.0954874	-0.253495	-0.174555	-0.170074	0.169291	0.618963	0.451762	0	0	0.0460516	-0.49483	0.187117	0.83201	1.34052	0	0
0.96	-2.74631	1.44338	-1.80418	0.566027	0.361368	0.93294	0.391739	-0.180287	-0.282121	0.39762	0.130444	0	0	-0.311302	0.0795392	-0.101616	0.0480404	0.235568	0	0	-0.256915	-0.0905762	-0.244626	-0.164857	-0.172369	0.174004	0.621732	0.448604	0	0	0.0630498	-0.492765	0.192026	0.828149	1.34026	0	0
0.97	-2.70065	1.44833	-1.85143	0.566806	0.371377	0.930313	0.379334	-0.167636	-0.281585	0.308427	0.178131	0	0	-0.312223	0.0811497	-0.109737	0.0574592	0.248542	0	0	-0.250013	-0.0969853	-0.241994	-0.164125	-0.171655	0.178581	0.627604	0.443993	0	0	0.0709619	-0.496597	0.197935	0.831037	1.33938	0	0
0.98	-2.73905	1.45435	-1.82057	0.567468	0.379315	0.929124	0.380786	-0.151623	-0.258748	0.264045	0.125299	0	0	-0.310346	0.0743698	-0.123741	0.0710483	0.260225	0	0	-0.25074	-0.0900526	-0.232574	-0.15444	-0.173621	0.182555	0.629543	0.440363	0	0	0.0874678	-0.492788	0.201597	0.825251	1.33856	0	0
0.99	-2.73706	1.45896	-1.82617	0.568132	0.388686	0.927314	0.368649	-0.136954	-0.236194	0.193349	0.112964	0	0	-0.310608	0.070742	-0.136888	0.0845374	0.273958	0	0	-0.248032	-0.0893613	-0.227751	-0.149893	-0.17383	0.185588	0.632599	0.438002	0	0	0.0979172	-0.491825	0.20507	0.822795	1.33879	0	0
1	-2.73026	1.46303	-1.83491	0.568644	0.398366	0.925535	0.35366	-0.124679	-0.210383	0.124978	0.0954595	0	0	-0.311565	0.0670241	-0.149029	0.0981147	0.28734	0	0	-0.245314	-0.0889053	-0.224534	-0.14586	-0.172717	0.183496	0.633493	0.452146	0	0	0.107184	-0.491271	0.211492	0.820837	1.32584	0	0
1.01	-2.65905	1.46723	-1.90489	0.56931	0.409362	0.922828	0.35425	-0.11966	-0.242306	0.0882756	0.136781	0	0	-0.314186	0.0687244	-0.153609	0.10618	0.29812	0	0	-0.236798	-0.0962974	-0.225651	-0.147134	-0.171099	0.187084	0.637769	0.446108	0	0	0.109809	-0.493792	0.215024	0.822735	1.33027	0	0
1.02	-2.7016	1.47088	-1.8627	0.569159	0.418544	0.921896	0.334294	-0.110218	-0.184469	0.0369882	0.0706309	0	0	-0.313723	0.0595143	-0.167236	0.12556	0.311481	0	0	-0.238381	-0.0878269	-0.224149	-0.140153	-0.173066	0.1898	0.639185	0.439195	0	0	0.120254	-0.487476	0.214702	0.815557	1.33442	0	0
1.03	-2.65374	1.47335	-1.907	0.56975	0.429945	0.919563	0.341466	-0.103838	-0.237564	0.0345396	0.117522	0	0	-0.317805	0.0573101	-0.17173	0.136887	0.321583	0	0	-0.232267	-0.0920105	-0.227518	-0.142048	-0.170626	0.189598	0.642782	0.438496	0	0	0.121041	-0.489352	0.218177	0.817338	1.33448	0	0
1.04	-2.65164	1.47616	-1.90526	0.569584	0.440557	0.91807	0.343848	-0.100779	-0.255158	0.0407391	0.121562	0	0	-0.319533	0.0509648	-0.177675	0.153461	0.331742	0	0	-0.229849	-0.0887371	-0.230992	-0.140619	-0.170568	0.188718	0.645525	0.438891	0	0	0.124388	-0.486412	0.220342	0.814638	1.33365	0	0
